<svg width="62" height="49" viewBox="0 0 62 49" fill="#222f5d" xmlns="http://www.w3.org/2000/svg">
<path d="M61.9365 38.586L49.4692 28.612V34.6285H40.5529C42.1706 32.4756 43.341 30.0209 43.9712 27.4L47.4905 26.4898V19.017L43.9762 18.1275C43.4944 16.121 42.6999 14.2105 41.6066 12.4306L43.4686 9.30714L38.1814 4.02086L35.0579 5.88189C33.2789 4.78961 31.3684 3.99415 29.362 3.51232L28.4725 0H20.9957L20.1063 3.5143C18.0998 3.99613 16.1893 4.7906 14.4104 5.88387L11.2869 4.02284L5.99963 9.30912L7.86165 12.4326C6.76937 14.2115 5.97391 16.123 5.49208 18.1295L1.97877 19.018V26.4928L5.49504 27.3901C6.13814 30.0694 7.33134 32.5151 8.92722 34.6285H0V42.5435H24.7346H49.4692V48.56L61.9365 38.586ZM1.97877 40.5648V36.6072H10.6478C12.2476 38.2279 14.1146 39.5695 16.1735 40.5648H1.97877ZM24.7346 40.5648C16.3298 40.5648 8.99648 34.5998 7.29671 26.3819L7.17106 25.7764L3.95754 24.9553V20.5574L7.16908 19.7452L7.29473 19.1377C7.74589 16.9531 8.60567 14.8853 9.85032 12.9916L10.1907 12.4742L8.48892 9.6188L11.5976 6.51015L14.4529 8.21288L14.9704 7.87254C16.8641 6.62789 18.9319 5.76811 21.1164 5.31695L21.7239 5.1913L22.5362 1.97877H26.932L27.7443 5.19031L28.3518 5.31597C30.5364 5.76712 32.6042 6.6269 34.4979 7.87155L35.0153 8.21189L37.8707 6.50916L40.9793 9.61781L39.2776 12.4732L39.6179 12.9906C40.8626 14.8843 41.7224 16.9521 42.1735 19.1367L42.2992 19.7442L45.5117 20.5574V24.9572L42.2952 25.7893L42.1706 26.3918C41.5344 29.455 40.0899 32.2896 37.9953 34.6275H31.8335C35.8701 32.2055 38.586 27.7978 38.586 22.7559C38.586 15.1178 32.3727 8.90446 24.7346 8.90446C17.0966 8.90446 10.8832 15.1178 10.8832 22.7559C10.8832 30.3939 17.0966 36.6072 24.7346 36.6072H51.448V32.7298L58.7685 38.586L51.448 44.4422V40.5648H24.7346ZM24.7346 34.6285C18.1879 34.6285 12.862 29.3026 12.862 22.7559C12.862 16.2091 18.1879 10.8832 24.7346 10.8832C31.2814 10.8832 36.6072 16.2091 36.6072 22.7559C36.6072 29.3026 31.2814 34.6285 24.7346 34.6285Z" fill="#222f5d"></path>
<path d="M17.3844 19.8104L15.5471 19.0763C15.275 19.757 15.0791 20.4684 14.9634 21.1906L16.9184 21.5013C17.0094 20.9245 17.1667 20.3556 17.3844 19.8104Z" fill="#222f5d"></path>
<path d="M16.8352 23.2574L14.8604 23.3791C14.9059 24.1123 15.0325 24.8395 15.2393 25.5419L17.1379 24.9859C16.9737 24.4249 16.8718 23.8432 16.8352 23.2574Z" fill="#222f5d"></path>
<path d="M16.0874 27.5662C16.4446 28.2063 16.873 28.8069 17.3607 29.352L18.8349 28.0322C18.4441 27.5959 18.1008 27.115 17.8159 26.6025L16.0874 27.5662Z" fill="#222f5d"></path>
<path d="M27.7029 22.7559C27.7029 21.4677 26.8728 20.3794 25.7241 19.9698V12.8621H23.7454V19.9698C22.5967 20.3794 21.7666 21.4677 21.7666 22.7559C21.7666 24.3924 23.0983 25.7241 24.7348 25.7241C25.1919 25.7241 25.6193 25.6123 26.0061 25.4263L28.9822 28.4023L30.3812 27.0033L27.4051 24.0273C27.5911 23.6404 27.7029 23.213 27.7029 22.7559ZM24.7348 23.7453C24.1896 23.7453 23.7454 23.3011 23.7454 22.7559C23.7454 22.2108 24.1896 21.7665 24.7348 21.7665C25.2799 21.7665 25.7241 22.2108 25.7241 22.7559C25.7241 23.3011 25.2799 23.7453 24.7348 23.7453Z" fill="#222f5d"></path>
</svg>