<svg width="49" height="49" viewBox="0 0 49 49" fill="#222f5d" xmlns="http://www.w3.org/2000/svg">
<path d="M16.8596 11.4022C16.7201 11.8315 16.8574 12.2917 17.2093 12.5746L20.3425 15.0929L19.2879 18.9719C19.1695 19.4075 19.329 19.8604 19.6944 20.1262C20.0599 20.3914 20.5397 20.403 20.9175 20.1559L24.2807 17.9543L27.6441 20.156C27.8254 20.2746 28.0302 20.3336 28.2346 20.3336C28.4561 20.3336 28.6772 20.2643 28.867 20.1262C29.2326 19.8607 29.3921 19.4075 29.2735 18.9719L28.2189 15.093L31.3519 12.5748C31.7041 12.292 31.8414 11.8317 31.7018 11.4022C31.5623 10.9725 31.1806 10.6809 30.7296 10.6591L26.7146 10.4633L25.2878 6.70544C25.1276 6.28329 24.7322 6.01043 24.2806 6.01043C23.8291 6.01043 23.4337 6.2832 23.2736 6.70535L21.8467 10.4634L17.8319 10.6591C17.3808 10.6809 16.9991 10.9725 16.8596 11.4022ZM22.2084 11.965C22.6363 11.9441 23.0111 11.6718 23.1629 11.2714L24.2806 8.32793L25.3982 11.2717C25.5503 11.672 25.9251 11.9441 26.3527 11.965L29.4974 12.1184L27.0432 14.0908C26.7093 14.3593 26.5663 14.7999 26.6787 15.213L27.5047 18.2512L24.8703 16.5267C24.6911 16.4095 24.4858 16.3508 24.2805 16.3508C24.0751 16.3508 23.8696 16.4096 23.6903 16.5268L21.0562 18.2512L21.8821 15.2132C21.9946 14.7998 21.8515 14.3591 21.5175 14.0908L19.0634 12.1184L22.2084 11.965ZM23.5218 3.54317V0.758749C23.5218 0.33973 23.8615 0 24.2806 0C24.6996 0 25.0393 0.33973 25.0393 0.758749V3.54317C25.0393 3.96219 24.6996 4.30192 24.2806 4.30192C23.8615 4.30192 23.5218 3.96219 23.5218 3.54317ZM28.1425 8.03856C27.8621 7.72719 27.8873 7.24738 28.1986 6.96702L31.3014 4.17312C31.6129 3.89266 32.0926 3.9178 32.3731 4.22926C32.6534 4.54064 32.6283 5.02045 32.3169 5.30081L29.214 8.09471C29.069 8.22531 28.8875 8.28961 28.7065 8.28961C28.4991 8.28961 28.2923 8.20501 28.1425 8.03856ZM16.188 4.22926C16.4684 3.9178 16.9481 3.89266 17.2597 4.17312L20.3626 6.96702C20.6739 7.24738 20.6991 7.72719 20.4187 8.03856C20.2689 8.20492 20.0621 8.28961 19.8546 8.28961C19.6737 8.28961 19.4922 8.22531 19.3471 8.09471L16.2442 5.30081C15.9327 5.02045 15.9077 4.54064 16.188 4.22926ZM34.0147 12.5746L37.1479 15.0929L36.0933 18.9719C35.9749 19.4075 36.1344 19.8604 36.4998 20.1262C36.8651 20.3914 37.345 20.4029 37.7229 20.1559L41.0862 17.9543L44.4495 20.156C44.6308 20.2746 44.8356 20.3336 45.04 20.3336C45.2616 20.3336 45.4826 20.2643 45.6724 20.1262C46.0379 19.8609 46.1974 19.4078 46.0789 18.9719L45.0244 15.093L48.1573 12.5748C48.5094 12.2921 48.6467 11.8318 48.5071 11.4022C48.3676 10.9725 47.9859 10.6809 47.5351 10.6591L43.52 10.4633L42.0933 6.70544C41.9331 6.28329 41.5377 6.01043 41.0862 6.01043C40.6345 6.01043 40.2391 6.2832 40.0789 6.70535L38.6522 10.4633L34.6375 10.659C34.1862 10.6808 33.8046 10.9725 33.665 11.4022C33.5254 11.8317 33.6628 12.292 34.0147 12.5746ZM39.0137 11.965C39.4418 11.9441 39.8166 11.6718 39.9685 11.2713L41.0861 8.32784L42.2035 11.2712C42.3556 11.6718 42.7304 11.9441 43.1582 11.9649L46.3029 12.1183L43.8491 14.0905C43.5149 14.3589 43.3717 14.7996 43.4842 15.2129L44.3102 18.2511L41.6758 16.5266C41.4966 16.4094 41.2912 16.3507 41.0859 16.3507C40.8805 16.3507 40.675 16.4095 40.4959 16.5267L37.8617 18.2511L38.6877 15.2131C38.8001 14.7999 38.657 14.3593 38.323 14.0907L35.8689 12.1183L39.0137 11.965ZM0.403683 12.5746L3.53684 15.0929L2.48227 18.9719C2.36391 19.4075 2.52334 19.8604 2.88877 20.1262C3.2543 20.3914 3.73411 20.403 4.11188 20.1559L7.47512 17.9543L10.8385 20.156C11.0198 20.2746 11.2246 20.3336 11.429 20.3336C11.6505 20.3336 11.8716 20.2643 12.0614 20.1262C12.4268 19.8609 12.5863 19.4078 12.4679 18.9719L11.4133 15.093L14.5463 12.5748C14.8982 12.2923 15.0356 11.8321 14.8961 11.4017C14.7563 10.9724 14.3746 10.6808 13.924 10.659L9.909 10.4632L8.48227 6.70544C8.32208 6.28329 7.92667 6.01043 7.47512 6.01043C7.02348 6.01043 6.62808 6.2832 6.46789 6.70535L5.04115 10.4633L1.02643 10.659C0.575254 10.6808 0.193604 10.9725 0.054184 11.4017C-0.0857103 11.8315 0.0515283 12.2919 0.403683 12.5746ZM5.4027 11.965C5.83073 11.9441 6.20555 11.6718 6.35749 11.2713L7.47503 8.32784L8.59248 11.2712C8.74451 11.6718 9.11933 11.9441 9.54717 11.9649L12.6919 12.1183L10.238 14.0905C9.90388 14.3589 9.76066 14.7996 9.87315 15.2129L10.6991 18.2511L8.06477 16.5266C7.88551 16.4094 7.68018 16.3507 7.47484 16.3507C7.26941 16.3507 7.06398 16.4095 6.88482 16.5267L4.25063 18.2511L5.07662 15.2131C5.18901 14.7999 5.04599 14.3593 4.71195 14.0907L2.25787 12.1183L5.4027 11.965ZM48.4411 40.3022C47.9072 38.5781 46.8138 37.0301 45.362 35.943C44.667 35.4226 43.9101 35.0172 43.1117 34.7302C44.2187 33.8614 44.9319 32.5128 44.9319 30.9997C44.9319 28.3853 42.8048 26.2583 40.1905 26.2583C37.576 26.2583 35.4489 28.3853 35.4489 30.9997C35.4489 32.511 36.1605 33.8583 37.2652 34.7272C35.7846 35.2556 34.4729 36.1842 33.4684 37.4353C32.9989 36.7785 32.4574 36.1685 31.8486 35.6179C30.6219 34.5085 29.1823 33.6938 27.6318 33.2123C29.276 32.1224 30.3629 30.2561 30.3629 28.1401C30.3629 24.7864 27.6343 22.058 24.2806 22.058C20.927 22.058 18.1984 24.7864 18.1984 28.1401C18.1984 30.2561 19.2852 32.1224 20.9293 33.2123C19.3788 33.6937 17.9392 34.5085 16.7125 35.6179C16.1037 36.1685 15.5622 36.7785 15.0928 37.4352C14.0884 36.184 12.7767 35.2554 11.296 34.7269C12.4006 33.858 13.1122 32.5107 13.1122 30.9994C13.1122 28.385 10.9852 26.258 8.37083 26.258C5.75637 26.258 3.62931 28.385 3.62931 30.9994C3.62931 32.5124 4.34254 33.8611 5.44936 34.7299C4.65097 35.0169 3.89412 35.4223 3.19901 35.9427C1.74724 37.0297 0.653785 38.5778 0.119911 40.3018C-0.126778 41.0981 0.00989201 41.9063 0.504691 42.5776C0.999395 43.2487 1.73102 43.6182 2.56469 43.6182H13.0537V44.9875C13.0537 46.9574 14.6563 48.56 16.6262 48.56H31.9349C33.9047 48.56 35.5074 46.9574 35.5075 44.9875V43.6186H45.9964C46.8302 43.6186 47.5618 43.249 48.0564 42.5779C48.5511 41.9066 48.6878 41.0984 48.4411 40.3022ZM40.1905 27.7758C41.9681 27.7758 43.4144 29.2221 43.4144 30.9997C43.4144 32.7775 41.9681 34.2237 40.1905 34.2237C38.4127 34.2237 36.9664 32.7775 36.9664 30.9997C36.9664 29.2221 38.4127 27.7758 40.1905 27.7758ZM19.7159 28.1401C19.7159 25.6231 21.7637 23.5755 24.2806 23.5755C26.7976 23.5755 28.8454 25.6231 28.8454 28.1401C28.8454 30.6563 26.7989 32.7034 24.2831 32.7047C24.2823 32.7047 24.2813 32.7047 24.2806 32.7047C24.2798 32.7047 24.2789 32.7047 24.2781 32.7047C21.7623 32.7033 19.7159 30.6562 19.7159 28.1401ZM8.37083 27.7754C10.1485 27.7754 11.5947 29.2217 11.5947 30.9993C11.5947 32.7771 10.1485 34.2234 8.37083 34.2234C6.59308 34.2234 5.14681 32.7771 5.14681 30.9993C5.14681 29.2217 6.59308 27.7754 8.37083 27.7754ZM13.1523 42.1006H2.56479C2.21557 42.1006 1.93351 41.9581 1.72628 41.677C1.51895 41.3959 1.46631 41.0842 1.56959 40.7507C2.49754 37.7541 5.23084 35.7409 8.37083 35.7409C10.746 35.7409 12.9097 36.8885 14.2404 38.8311C13.7143 39.8532 13.3458 40.9548 13.1523 42.1006ZM33.99 44.9874C33.9899 46.1205 33.068 47.0424 31.9349 47.0424H16.6262C15.4931 47.0424 14.5712 46.1205 14.5712 44.9874V42.9006C15.1206 37.9509 19.2865 34.2234 24.2781 34.2222C24.2789 34.2222 24.2798 34.2223 24.2806 34.2223C24.2815 34.2223 24.2824 34.2222 24.2831 34.2222C29.2746 34.2235 33.4404 37.9509 33.99 42.9006V44.9874ZM46.8349 41.6775C46.6277 41.9585 46.3457 42.101 45.9964 42.101H35.409C35.2153 40.9551 34.8469 39.8535 34.3209 38.8313C35.6517 36.8887 37.8153 35.7412 40.1904 35.7412C43.3304 35.7412 46.0637 37.7546 46.9916 40.7512C47.0949 41.0845 47.0422 41.3962 46.8349 41.6775Z" fill="#222f5d"></path>
</svg>