<svg width="49" height="49" viewBox="0 0 49 49" fill="#222f5d" xmlns="http://www.w3.org/2000/svg">
<path d="M24.1948 6.19216C24.7242 6.19216 25.1534 5.76301 25.1534 5.23364V0.958519C25.1534 0.429149 24.7242 0 24.1948 0C23.6655 0 23.2363 0.429149 23.2363 0.958519V5.23364C23.2364 5.76301 23.6656 6.19216 24.1948 6.19216Z" fill="#222f5d"></path>
<path d="M47.6248 32.9295L45.9315 31.241C45.3292 30.6394 44.5263 30.308 43.6709 30.308C43.1239 30.308 42.5988 30.4441 42.1335 30.699L38.9426 27.512L39.0981 27.3568C40.3926 26.0597 40.3921 23.952 39.098 22.6593C38.6355 22.196 38.0585 21.8871 37.4294 21.7571C37.516 21.4581 37.5616 21.145 37.5616 20.8245C37.5616 19.9342 37.2158 19.0993 36.5897 18.4758C36.1271 18.0125 35.5502 17.7035 34.9212 17.5735C35.0078 17.2746 35.0534 16.9615 35.0534 16.641C35.0534 15.7505 34.7075 14.9157 34.0804 14.2913C33.6068 13.8182 33.0246 13.5188 32.4133 13.3914C32.7403 12.2638 32.4609 10.9952 31.5738 10.1066C30.8354 9.37141 29.8335 9.05543 28.868 9.15784L22.5449 7.961C21.5806 7.77807 20.3764 7.6571 19.6162 8.35046C19.5682 8.39424 19.5193 8.44459 19.4711 8.50065C18.2925 8.07102 16.9177 8.32685 15.9739 9.26967C15.3477 9.89507 15.0028 10.7296 15.0028 11.6195C15.0028 11.94 15.0482 12.2531 15.1347 12.5521C14.5064 12.682 13.9301 12.9906 13.4691 13.4524C12.8417 14.0772 12.4958 14.9108 12.4951 15.7996C12.4948 16.1209 12.5404 16.435 12.6274 16.7348C11.9988 16.8644 11.4221 17.1724 10.9597 17.6342C10.3323 18.261 9.98683 19.0959 9.98683 19.9854C9.98683 20.6666 10.1902 21.3156 10.5671 21.8638C10.0912 22.0252 9.65533 22.2937 9.29033 22.6583C7.99499 23.952 7.99451 26.0598 9.29119 27.3587L9.44604 27.5129L6.25479 30.6984C5.0688 30.14 3.60756 30.3492 2.62886 31.3266L0.934534 33.0162C0.331879 33.6181 9.51761e-05 34.421 0 35.2769C0 36.1329 0.331879 36.9359 0.934534 37.5379L3.04906 39.6499C3.42358 40.024 4.03052 40.0236 4.40456 39.6491C4.7787 39.2746 4.77832 38.6677 4.4038 38.2936L2.28927 36.1817C2.04924 35.9419 1.91704 35.6206 1.91704 35.277C1.91704 34.9335 2.04924 34.6123 2.2887 34.3731L3.98312 32.6835C4.40646 32.2606 5.05442 32.1976 5.54648 32.4918C5.58113 32.5438 5.6212 32.5933 5.66707 32.6393C5.74921 32.7216 5.84296 32.7847 5.94251 32.8309L15.6593 42.5334C15.7055 42.634 15.7689 42.7287 15.8516 42.8115C15.9321 42.8922 16.0239 42.9545 16.1214 43.0004C16.3269 43.2327 16.4404 43.5295 16.4404 43.846C16.4404 44.1896 16.3082 44.5108 16.0682 44.7506L14.3755 46.4413C13.8753 46.9392 13.0618 46.9391 12.5632 46.4428L10.4486 44.3281C10.0743 43.9538 9.46745 43.9538 9.09313 44.3281C8.7188 44.7024 8.7188 45.3092 9.09313 45.6836L11.2092 47.7998C11.832 48.4201 12.65 48.7301 13.4683 48.7301C14.2868 48.7301 15.1057 48.4196 15.7293 47.7988L17.423 46.107C18.0257 45.505 18.3576 44.7021 18.3576 43.846C18.3576 43.2351 18.1877 42.6516 17.8718 42.1485L21.4634 38.5614C21.4672 38.5575 21.471 38.5536 21.4749 38.5497C21.8861 38.1245 23.0314 38.2041 24.139 38.281C24.9259 38.3357 25.8032 38.3965 26.6604 38.2977L30.5934 42.2261C30.3386 42.6907 30.2026 43.2151 30.2026 43.7612C30.2026 44.6164 30.5345 45.4188 31.1372 46.0208L32.831 47.7125C33.4333 48.3142 34.2361 48.6456 35.0915 48.6456C35.9469 48.6456 36.7497 48.3142 37.3521 47.7125L47.6255 37.4516C48.2281 36.8497 48.56 36.0468 48.56 35.1908C48.5599 34.3349 48.228 33.532 47.6248 32.9295ZM22.188 9.84453L26.346 10.6315L23.8572 13.1194C23.4722 12.9343 22.9446 12.5892 22.3657 12.0355C21.5734 11.2775 21.0066 10.4024 20.955 9.85652C20.9549 9.85624 20.9549 9.85595 20.9549 9.85567C20.9549 9.85557 20.9548 9.85548 20.9548 9.85538C20.9511 9.81617 20.9502 9.78486 20.9506 9.76097C21.076 9.73051 21.4089 9.69672 22.188 9.84453ZM17.3285 10.626C17.8141 10.1409 18.5685 10.0849 19.1172 10.4565C19.4281 11.7602 20.5402 12.9418 21.0406 13.4206C21.4114 13.7754 22.6012 14.8392 23.8021 15.1316C23.9646 15.3645 24.053 15.6421 24.053 15.935C24.053 16.3124 23.9079 16.6652 23.6434 16.9294C23.3796 17.1937 23.0262 17.3391 22.6482 17.3391C22.2701 17.3391 21.9167 17.1937 21.6517 16.9282L21.6516 16.9281L21.6511 16.9276L17.3284 12.6127C17.0649 12.3496 16.9197 11.9968 16.9197 11.6195C16.9198 11.2421 17.065 10.8893 17.3285 10.626ZM14.8239 14.8087C15.0876 14.5446 15.4406 14.3991 15.8181 14.3991C16.196 14.3991 16.5502 14.5449 16.8156 14.8101L20.2964 18.2839C20.8445 18.8329 20.8445 19.7262 20.2983 20.2733C20.0331 20.5374 19.6785 20.6828 19.2998 20.6828C18.9211 20.6828 18.5665 20.5374 18.3025 20.2744L18.3024 20.2743L15.6617 17.6342C15.6576 17.6301 15.6531 17.6263 15.649 17.6221L14.8228 16.7964C14.5578 16.5316 14.4119 16.1781 14.4121 15.801C14.4125 15.4252 14.558 15.0735 14.8239 14.8087ZM12.3145 18.9906C12.5784 18.727 12.9322 18.5819 13.3108 18.5819C13.6862 18.5819 14.037 18.7249 14.2997 18.9839L16.9485 21.6314C17.2126 21.8945 17.3581 22.2469 17.3581 22.6238C17.3581 23.0006 17.2126 23.3531 16.9474 23.6172C16.6836 23.8806 16.3302 24.0258 15.9523 24.0258C15.5738 24.0258 15.2192 23.8803 14.955 23.6172L13.9948 22.6581C13.9946 22.6578 13.9943 22.6576 13.9941 22.6574L12.3146 20.9799C12.0498 20.7154 11.904 20.3621 11.904 19.9852C11.904 19.6084 12.0498 19.255 12.3145 18.9906ZM10.6451 24.0145C10.9101 23.7498 11.2644 23.604 11.6425 23.604C12.0206 23.604 12.3747 23.7497 12.6397 24.0143L13.6012 24.9747C13.8654 25.2377 14.0109 25.5902 14.0109 25.9671C14.0109 26.344 13.8654 26.6963 13.5992 26.9615C13.3355 27.2256 12.9821 27.3711 12.6041 27.3711C12.2259 27.3711 11.8726 27.2257 11.6069 26.9596L11.4865 26.8397C11.4849 26.838 11.4837 26.8363 11.4821 26.8348C11.4803 26.8331 11.4784 26.8316 11.4766 26.8299L10.646 26.0025C10.0979 25.4532 10.0974 24.5615 10.6451 24.0145ZM30.1784 34.9082C29.8043 34.5336 29.1974 34.5333 28.8229 34.9074L27.9702 35.7591C27.1598 36.5694 25.6916 36.4674 24.2716 36.3689C22.7297 36.2617 21.1352 36.1511 20.1034 37.2104L16.5728 40.7367L7.74401 31.9208L10.8684 28.802C11.3849 29.1186 11.9808 29.2883 12.6043 29.2883C13.495 29.2883 14.3303 28.943 14.9542 28.3179C15.5822 27.6924 15.9282 26.8576 15.9282 25.9672C15.9282 25.9589 15.9276 25.9507 15.9276 25.9424C15.9359 25.9425 15.9442 25.943 15.9525 25.943C16.842 25.943 17.6766 25.5988 18.3013 24.9748C18.9294 24.3493 19.2754 23.5144 19.2754 22.624C19.2754 22.6157 19.2748 22.6076 19.2748 22.5993C19.2832 22.5993 19.2915 22.5998 19.3 22.5998C20.1892 22.5998 21.0243 22.256 21.6532 21.6296C22.3061 20.9757 22.6291 20.1147 22.6229 19.2555C22.6315 19.2556 22.64 19.2561 22.6486 19.2561C23.5393 19.256 24.3745 18.9108 24.9993 18.2848C25.6255 17.6594 25.9704 16.8249 25.9704 15.935C25.9704 15.3127 25.8012 14.7177 25.4857 14.2024L28.2242 11.465C28.4283 11.2618 28.6799 11.1343 28.9436 11.0816C28.9722 11.0786 29.0004 11.074 29.0282 11.0685C29.4514 11.0102 29.8958 11.1407 30.2194 11.463C30.7675 12.0121 30.7675 12.9054 30.2214 13.4525L29.3873 14.2831C29.3846 14.2858 29.3816 14.2883 29.3789 14.2911L28.4183 15.2501C28.0436 15.6241 28.0433 16.231 28.4174 16.6056C28.7916 16.9802 29.3985 16.9805 29.7729 16.6064L30.6103 15.7702C30.6104 15.77 30.6106 15.7698 30.6108 15.7696L30.7374 15.6435C31.2871 15.0989 32.1775 15.1001 32.7266 15.6484C32.9908 15.9114 33.1363 16.2639 33.1363 16.6408C33.1363 17.0176 32.9908 17.37 32.7245 17.6352L31.8857 18.4757C31.8856 18.4758 31.8855 18.4759 31.8854 18.4761L30.9249 19.4327C30.5498 19.8062 30.5486 20.4132 30.9222 20.7882C31.2957 21.1633 31.9026 21.1644 32.2777 20.7909L33.2425 19.8299C33.5063 19.5657 33.8597 19.4203 34.2377 19.4203C34.6158 19.4203 34.9693 19.5657 35.235 19.8318C35.4992 20.095 35.6446 20.4474 35.6446 20.8243C35.6446 21.2011 35.4992 21.5536 35.2334 21.8182L33.5612 23.4911C33.187 23.8655 33.1871 24.4723 33.5614 24.8466C33.7486 25.0337 33.9938 25.1272 34.239 25.1272C34.4844 25.1272 34.7298 25.0335 34.9169 24.8463L35.7364 24.0264C35.7411 24.022 35.7462 24.0181 35.7508 24.0134C36.0146 23.7492 36.3679 23.6038 36.746 23.6038C37.1241 23.6038 37.4775 23.7492 37.7422 24.0144C38.2897 24.5613 38.2893 25.4531 37.7422 26.0012L36.9089 26.8335C36.9086 26.8338 36.9083 26.834 36.908 26.8343C36.9077 26.8346 36.9074 26.835 36.9071 26.8353L35.5845 28.1562C35.21 28.5304 35.2096 29.1373 35.5837 29.5118C35.7709 29.6992 36.0165 29.793 36.2619 29.793C36.507 29.793 36.7522 29.6995 36.9393 29.5127L37.5862 28.8665L40.6867 31.9635L31.8587 40.7808L28.6956 37.6215C28.9161 37.4797 29.1271 37.3129 29.3252 37.1149L30.1775 36.2636C30.5522 35.8897 30.5526 35.2827 30.1784 34.9082ZM46.2706 36.0953L35.9972 46.3562C35.7569 46.5962 35.4352 46.7284 35.0914 46.7284C34.7477 46.7284 34.426 46.5962 34.1856 46.3561L32.4917 44.6643C32.2517 44.4247 32.1195 44.1039 32.1195 43.7612C32.1195 43.4186 32.2517 43.0978 32.4917 42.8581L42.7651 32.5971C43.0055 32.357 43.3271 32.2248 43.671 32.2248C44.0148 32.2248 44.3365 32.357 44.5775 32.5977L46.2707 34.2862C46.5108 34.526 46.643 34.8471 46.643 35.1907C46.6429 35.5344 46.5107 35.8556 46.2706 36.0953Z" fill="#222f5d"></path>
<path d="M11.4671 5.3841C11.6542 5.57083 11.8992 5.66411 12.1441 5.66411C12.3897 5.66411 12.6353 5.57026 12.8226 5.38267C13.1965 5.00796 13.1959 4.40112 12.8212 4.02717L9.32845 0.541346C8.95384 0.167399 8.3469 0.167875 7.97295 0.542679C7.599 0.917387 7.59958 1.52423 7.97428 1.89818L11.4671 5.3841Z" fill="#222f5d"></path>
<path d="M36.2456 5.66413C36.4907 5.66413 36.7359 5.57067 36.923 5.38384L40.4131 1.89792C40.7876 1.52387 40.788 0.916936 40.4138 0.542418C40.0398 0.1679 39.433 0.167519 39.0583 0.541657L35.5682 4.02758C35.1937 4.40162 35.1933 5.00856 35.5675 5.38308C35.7547 5.57048 36.0001 5.66413 36.2456 5.66413Z" fill="#222f5d"></path>
<path d="M5.89363 41.2307C5.52254 41.6082 5.52768 42.2151 5.90524 42.5862L5.908 42.5889C6.09426 42.772 6.3361 42.8632 6.57785 42.8632C6.82597 42.8632 7.0741 42.7671 7.26207 42.5759C7.63316 42.1985 7.62659 41.5902 7.24913 41.2191C6.87175 40.848 6.26491 40.8532 5.89363 41.2307Z" fill="#222f5d"></path>
<path d="M32.5225 33.5274C32.6683 33.5274 32.8162 33.4942 32.9551 33.4242C33.4277 33.1858 33.6176 32.6094 33.3793 32.1368C33.1408 31.6641 32.5644 31.4742 32.0918 31.7126L32.0865 31.7152C31.6138 31.9537 31.4266 32.5287 31.6649 33.0014C31.8332 33.3352 32.1717 33.5274 32.5225 33.5274Z" fill="#222f5d"></path>
</svg>