<svg width="50" height="49" viewBox="0 0 50 49" fill="#222f5d" xmlns="http://www.w3.org/2000/svg">
<path d="M10.4445 22.7587H17.145C18.3248 22.7587 19.2848 21.7987 19.2848 20.6185V13.2096C19.2848 12.0298 18.3248 11.0698 17.145 11.0698H10.4445C9.26469 11.0698 8.30469 12.0298 8.30469 13.2096V20.6185C8.30469 21.7987 9.26469 22.7587 10.4445 22.7587ZM9.9176 13.2096C9.9176 12.9241 10.1586 12.6827 10.4445 12.6827H17.145C17.4309 12.6827 17.6719 12.9241 17.6719 13.2096V20.6185C17.6719 20.9044 17.4309 21.1458 17.145 21.1458H10.4445C10.1586 21.1458 9.9176 20.9044 9.9176 20.6185V13.2096Z" fill="#222f5d"></path>
<path d="M22.0486 13.0521H31.0268C31.4725 13.0521 31.8332 12.691 31.8332 12.2457C31.8332 11.8003 31.4725 11.4392 31.0268 11.4392H22.0486C21.6029 11.4392 21.2422 11.8003 21.2422 12.2457C21.2422 12.691 21.6029 13.0521 22.0486 13.0521Z" fill="#222f5d"></path>
<path d="M22.0486 17.9054H31.0268C31.4725 17.9054 31.8332 17.5443 31.8332 17.0989C31.8332 16.6536 31.4725 16.2925 31.0268 16.2925H22.0486C21.6029 16.2925 21.2422 16.6536 21.2422 17.0989C21.2422 17.5443 21.6029 17.9054 22.0486 17.9054Z" fill="#222f5d"></path>
<path d="M49.7264 44.3776L44.96 38.2811C44.7474 38.0086 44.441 37.8354 44.0969 37.7932C43.7512 37.7511 43.4125 37.8448 43.1408 38.0578L42.442 38.6045L41.5011 37.4022C43.3608 35.49 44.4363 32.9963 44.5223 30.3122C44.6145 27.4593 43.5898 24.7422 41.6375 22.6607C40.0069 20.9228 37.9256 19.8643 35.7426 19.4723V6.44449C35.7426 5.09819 34.6471 4.0031 33.3012 4.0031H31.593V2.44139C31.593 1.09509 30.4975 4.45397e-09 29.1516 4.45397e-09H2.44139C1.09549 -8.06414e-05 0 1.09501 0 2.44139V37.0959C0 38.4422 1.09549 39.5373 2.44139 39.5373H4.14963V41.1017C4.14963 42.4465 5.24512 43.5404 6.59102 43.5404H33.3011C34.647 43.5404 35.7425 42.4465 35.7425 41.1017V40.482C37.3949 40.1871 38.9473 39.5033 40.2957 38.4782L41.172 39.5979L40.4709 40.1464C39.9094 40.5854 39.8086 41.3998 40.248 41.9628L45.0175 48.0605C45.2726 48.3857 45.6538 48.5562 46.0389 48.5559C46.3169 48.5559 46.5981 48.4665 46.8336 48.2822L49.5027 46.1939C50.065 45.755 50.1658 44.9403 49.7264 44.3776ZM2.44139 37.9243C1.98461 37.9243 1.61292 37.5526 1.61292 37.0959V2.44139C1.61292 1.98461 1.98461 1.61284 2.44139 1.61284H29.1514C29.6081 1.61284 29.9798 1.98453 29.9798 2.44131V4.00302H6.5911C5.2452 4.00302 4.14971 5.09811 4.14971 6.44441V37.9243L2.44139 37.9243ZM34.1296 41.1017C34.1296 41.557 33.7579 41.9274 33.3011 41.9274H6.5911C6.13432 41.9274 5.76263 41.5569 5.76263 41.1017V6.44449C5.76263 5.98771 6.13432 5.61601 6.5911 5.61601H33.3011C33.7579 5.61601 34.1296 5.98771 34.1296 6.44449V19.2971C31.9382 19.2381 29.7341 19.8581 27.8418 21.1458H22.0524C21.6066 21.1458 21.2459 21.5069 21.2459 21.9523C21.2459 22.3976 21.6066 22.7587 22.0524 22.7587H25.9678C25.0767 23.7309 24.3945 24.8298 23.9291 25.9992H9.1112C8.66547 25.9992 8.30475 26.3603 8.30475 26.8056C8.30475 27.2509 8.66547 27.6121 9.1112 27.6121H23.4355C23.1971 28.6756 23.1254 29.7682 23.2151 30.8525H9.11128C8.66556 30.8525 8.30483 31.2136 8.30483 31.659C8.30483 32.1043 8.66556 32.4654 9.11128 32.4654H23.4702C23.7409 33.5958 24.1924 34.6929 24.8376 35.7055H9.11128C8.66556 35.7055 8.30483 36.0666 8.30483 36.5119C8.30483 36.9572 8.66556 37.3184 9.11128 37.3184H26.0924C28.0408 39.3737 30.668 40.557 33.5012 40.6482C33.7133 40.6545 33.9171 40.6461 34.1296 40.6407C34.1296 40.7944 34.1296 40.948 34.1296 41.1017ZM33.5531 39.036C31.1314 38.958 28.8844 37.9421 27.2274 36.1747C23.8054 32.5264 23.9905 26.7744 27.6385 23.3525C29.3334 21.7632 31.5244 20.8981 33.8366 20.8981C33.9358 20.8981 34.035 20.8997 34.135 20.9028C36.5568 20.9808 38.8037 21.9967 40.4607 23.7641C43.8827 27.4124 43.6976 33.1644 40.0489 36.5863C38.2823 38.2441 35.9866 39.1096 33.5531 39.036ZM46.0909 46.8151L41.7153 41.2207L43.8842 39.5239L48.2591 45.1195L46.0909 46.8151Z" fill="#222f5d"></path>
<path d="M39.1273 25.0155C36.3952 22.1043 31.8053 21.9578 28.8945 24.6883C25.9813 27.4176 25.8341 32.0094 28.5645 34.9237C29.9869 36.4398 31.9148 37.2061 33.8466 37.2061C35.6234 37.2061 37.404 36.5584 38.8004 35.2506C41.7105 32.5197 41.857 27.9283 39.1273 25.0155ZM37.6971 34.074C35.4321 36.1976 31.8636 36.0826 29.7412 33.8208C27.6188 31.5553 27.7337 27.9865 29.9972 25.8649C31.0809 24.8478 32.4646 24.3445 33.8452 24.3445C35.3463 24.3445 36.845 24.9403 37.9507 26.1184C40.0723 28.3827 39.9581 31.9519 37.6971 34.074Z" fill="#222f5d"></path>
<path d="M38.1464 29.0072C37.6424 26.6953 35.3498 25.2261 33.0375 25.7298C32.602 25.8247 32.3264 26.2543 32.4209 26.6894C32.5162 27.1241 32.947 27.399 33.3809 27.3057C34.8324 26.9915 36.2563 27.9093 36.5713 29.3513C36.6533 29.7286 36.9872 29.9861 37.3581 29.9857C37.4148 29.9857 37.4731 29.9798 37.5306 29.9672C37.966 29.8723 38.2417 29.4423 38.1464 29.0072Z" fill="#222f5d"></path>
</svg>