<svg width="50" height="50" viewBox="0 0 50 50" fill="none" xmlns="http://www.w3.org/2000/svg">
<path d="M29.767 38.4583C40.1198 38.4583 48.5124 30.0657 48.5124 19.7128C48.5124 9.35998 40.1198 0.967346 29.767 0.967346C19.4141 0.967346 11.0215 9.35998 11.0215 19.7128C11.0215 30.0657 19.4141 38.4583 29.767 38.4583Z" stroke="#222f5d" stroke-width="1.5" stroke-miterlimit="10" stroke-linecap="round" stroke-linejoin="round"></path>
<path d="M19.7606 48.56C30.1134 48.56 38.5061 40.1673 38.5061 29.8145C38.5061 19.4617 30.1134 11.069 19.7606 11.069C9.40777 11.069 1.01514 19.4617 1.01514 29.8145C1.01514 40.1673 9.40777 48.56 19.7606 48.56Z" stroke="#222f5d" stroke-width="1.5" stroke-miterlimit="10" stroke-linecap="round" stroke-linejoin="round"></path>
<path d="M12.8809 27.5256L22.4487 17.9577L37.5427 2.86377" stroke="#222f5d" stroke-width="1.5" stroke-miterlimit="10" stroke-linecap="round" stroke-linejoin="round"></path>
<path d="M30.1548 1.1795L17.5812 13.753L11.126 20.2083" stroke="#222f5d" stroke-width="1.5" stroke-miterlimit="10" stroke-linecap="round" stroke-linejoin="round"></path>
<path d="M22.0659 36.4866L46.56 11.9924" stroke="#222f5d" stroke-width="1.5" stroke-miterlimit="10" stroke-linecap="round" stroke-linejoin="round"></path>
<path d="M27.3687 22.1107L43.0218 6.45752" stroke="#222f5d" stroke-width="1.5" stroke-miterlimit="10" stroke-linecap="round" stroke-linejoin="round"></path>
<path d="M16.5117 32.9673L21.2105 28.2686" stroke="#222f5d" stroke-width="1.5" stroke-miterlimit="10" stroke-linecap="round" stroke-linejoin="round"></path>
<path d="M29.271 38.3538L48.2998 19.325" stroke="#222f5d" stroke-width="1.5" stroke-miterlimit="10" stroke-linecap="round" stroke-linejoin="round"></path>
</svg>